<mxfile host="app.diagrams.net" modified="2024-06-20T20:40:39.666Z" agent="Mozilla/5.0 (Macintosh; Intel Mac OS X 10_15_7) AppleWebKit/537.36 (KHTML, like Gecko) Chrome/126.0.0.0 Safari/537.36" etag="3_mzQKMWPRqTey_fHryL" version="24.5.5" type="device">
  <diagram id="1mPUfDkSigSSA3c4I4ly" name="Page-1">
    <mxGraphModel dx="2301" dy="2056" grid="1" gridSize="10" guides="1" tooltips="1" connect="1" arrows="1" fold="1" page="1" pageScale="1" pageWidth="850" pageHeight="1100" math="0" shadow="0">
      <root>
        <mxCell id="0" />
        <mxCell id="1" style="" parent="0" />
        <mxCell id="vf7dCfk-Jjins05NdSQa-1" value="Shared Networking Account" style="points=[[0,0],[0.25,0],[0.5,0],[0.75,0],[1,0],[1,0.25],[1,0.5],[1,0.75],[1,1],[0.75,1],[0.5,1],[0.25,1],[0,1],[0,0.75],[0,0.5],[0,0.25]];outlineConnect=0;gradientColor=none;html=1;whiteSpace=wrap;fontSize=12;fontStyle=0;shape=mxgraph.aws4.group;grIcon=mxgraph.aws4.group_aws_cloud_alt;strokeColor=#232F3E;fillColor=none;verticalAlign=top;align=left;spacingLeft=30;fontColor=#232F3E;dashed=0;" parent="1" vertex="1">
          <mxGeometry x="-40" y="-100" width="770" height="1470" as="geometry" />
        </mxCell>
        <mxCell id="vf7dCfk-Jjins05NdSQa-9" value="N.Virginia (us-east-1)" style="points=[[0,0],[0.25,0],[0.5,0],[0.75,0],[1,0],[1,0.25],[1,0.5],[1,0.75],[1,1],[0.75,1],[0.5,1],[0.25,1],[0,1],[0,0.75],[0,0.5],[0,0.25]];outlineConnect=0;gradientColor=none;html=1;whiteSpace=wrap;fontSize=12;fontStyle=0;shape=mxgraph.aws4.group;grIcon=mxgraph.aws4.group_region;strokeColor=#147EBA;fillColor=none;verticalAlign=top;align=left;spacingLeft=30;fontColor=#147EBA;dashed=1;" parent="1" vertex="1">
          <mxGeometry x="-30" y="140" width="750" height="1220" as="geometry" />
        </mxCell>
        <mxCell id="vf7dCfk-Jjins05NdSQa-3" value="Production Account" style="points=[[0,0],[0.25,0],[0.5,0],[0.75,0],[1,0],[1,0.25],[1,0.5],[1,0.75],[1,1],[0.75,1],[0.5,1],[0.25,1],[0,1],[0,0.75],[0,0.5],[0,0.25]];outlineConnect=0;gradientColor=none;html=1;whiteSpace=wrap;fontSize=12;fontStyle=0;shape=mxgraph.aws4.group;grIcon=mxgraph.aws4.group_aws_cloud_alt;strokeColor=#232F3E;fillColor=none;verticalAlign=top;align=left;spacingLeft=30;fontColor=#232F3E;dashed=0;" parent="1" vertex="1">
          <mxGeometry x="900" y="220" width="690" height="520" as="geometry" />
        </mxCell>
        <mxCell id="vf7dCfk-Jjins05NdSQa-4" value="Prod VPC" style="" parent="0" />
        <mxCell id="vf7dCfk-Jjins05NdSQa-29" value="&lt;font color=&quot;#000000&quot;&gt;Prod VPC (10.0.0.0/16)&lt;/font&gt;" style="points=[[0,0],[0.25,0],[0.5,0],[0.75,0],[1,0],[1,0.25],[1,0.5],[1,0.75],[1,1],[0.75,1],[0.5,1],[0.25,1],[0,1],[0,0.75],[0,0.5],[0,0.25]];outlineConnect=0;gradientColor=none;html=1;whiteSpace=wrap;fontSize=12;fontStyle=0;shape=mxgraph.aws4.group;grIcon=mxgraph.aws4.group_vpc;strokeColor=#248814;fillColor=none;verticalAlign=top;align=left;spacingLeft=30;fontColor=#AAB7B8;dashed=0;" parent="vf7dCfk-Jjins05NdSQa-4" vertex="1">
          <mxGeometry x="-10" y="170" width="710" height="560" as="geometry" />
        </mxCell>
        <mxCell id="vf7dCfk-Jjins05NdSQa-30" value="Availability Zone" style="fillColor=none;strokeColor=#147EBA;dashed=1;verticalAlign=top;fontStyle=0;fontColor=#147EBA;" parent="vf7dCfk-Jjins05NdSQa-4" vertex="1">
          <mxGeometry x="20" y="270" width="210" height="450" as="geometry" />
        </mxCell>
        <mxCell id="vf7dCfk-Jjins05NdSQa-31" value="Availability Zone" style="fillColor=none;strokeColor=#147EBA;dashed=1;verticalAlign=top;fontStyle=0;fontColor=#147EBA;" parent="vf7dCfk-Jjins05NdSQa-4" vertex="1">
          <mxGeometry x="250" y="270" width="210" height="450" as="geometry" />
        </mxCell>
        <mxCell id="vf7dCfk-Jjins05NdSQa-32" value="Availability Zone" style="fillColor=none;strokeColor=#147EBA;dashed=1;verticalAlign=top;fontStyle=0;fontColor=#147EBA;" parent="vf7dCfk-Jjins05NdSQa-4" vertex="1">
          <mxGeometry x="480" y="270" width="210" height="450" as="geometry" />
        </mxCell>
        <mxCell id="vf7dCfk-Jjins05NdSQa-33" value="Public subnet" style="points=[[0,0],[0.25,0],[0.5,0],[0.75,0],[1,0],[1,0.25],[1,0.5],[1,0.75],[1,1],[0.75,1],[0.5,1],[0.25,1],[0,1],[0,0.75],[0,0.5],[0,0.25]];outlineConnect=0;gradientColor=none;html=1;whiteSpace=wrap;fontSize=12;fontStyle=0;shape=mxgraph.aws4.group;grIcon=mxgraph.aws4.group_security_group;grStroke=0;strokeColor=#248814;fillColor=#E9F3E6;verticalAlign=top;align=left;spacingLeft=30;fontColor=#248814;dashed=0;" parent="vf7dCfk-Jjins05NdSQa-4" vertex="1">
          <mxGeometry x="30" y="300" width="190" height="130" as="geometry" />
        </mxCell>
        <mxCell id="vf7dCfk-Jjins05NdSQa-34" value="Public subnet" style="points=[[0,0],[0.25,0],[0.5,0],[0.75,0],[1,0],[1,0.25],[1,0.5],[1,0.75],[1,1],[0.75,1],[0.5,1],[0.25,1],[0,1],[0,0.75],[0,0.5],[0,0.25]];outlineConnect=0;gradientColor=none;html=1;whiteSpace=wrap;fontSize=12;fontStyle=0;shape=mxgraph.aws4.group;grIcon=mxgraph.aws4.group_security_group;grStroke=0;strokeColor=#248814;fillColor=#E9F3E6;verticalAlign=top;align=left;spacingLeft=30;fontColor=#248814;dashed=0;" parent="vf7dCfk-Jjins05NdSQa-4" vertex="1">
          <mxGeometry x="260" y="300" width="190" height="130" as="geometry" />
        </mxCell>
        <mxCell id="vf7dCfk-Jjins05NdSQa-35" value="Public subnet" style="points=[[0,0],[0.25,0],[0.5,0],[0.75,0],[1,0],[1,0.25],[1,0.5],[1,0.75],[1,1],[0.75,1],[0.5,1],[0.25,1],[0,1],[0,0.75],[0,0.5],[0,0.25]];outlineConnect=0;gradientColor=none;html=1;whiteSpace=wrap;fontSize=12;fontStyle=0;shape=mxgraph.aws4.group;grIcon=mxgraph.aws4.group_security_group;grStroke=0;strokeColor=#248814;fillColor=#E9F3E6;verticalAlign=top;align=left;spacingLeft=30;fontColor=#248814;dashed=0;" parent="vf7dCfk-Jjins05NdSQa-4" vertex="1">
          <mxGeometry x="490" y="300" width="190" height="130" as="geometry" />
        </mxCell>
        <mxCell id="vf7dCfk-Jjins05NdSQa-36" value="Private subnet" style="points=[[0,0],[0.25,0],[0.5,0],[0.75,0],[1,0],[1,0.25],[1,0.5],[1,0.75],[1,1],[0.75,1],[0.5,1],[0.25,1],[0,1],[0,0.75],[0,0.5],[0,0.25]];outlineConnect=0;gradientColor=none;html=1;whiteSpace=wrap;fontSize=12;fontStyle=0;shape=mxgraph.aws4.group;grIcon=mxgraph.aws4.group_security_group;grStroke=0;strokeColor=#147EBA;fillColor=#E6F2F8;verticalAlign=top;align=left;spacingLeft=30;fontColor=#147EBA;dashed=0;" parent="vf7dCfk-Jjins05NdSQa-4" vertex="1">
          <mxGeometry x="30" y="440" width="190" height="130" as="geometry" />
        </mxCell>
        <mxCell id="vf7dCfk-Jjins05NdSQa-37" value="Private subnet" style="points=[[0,0],[0.25,0],[0.5,0],[0.75,0],[1,0],[1,0.25],[1,0.5],[1,0.75],[1,1],[0.75,1],[0.5,1],[0.25,1],[0,1],[0,0.75],[0,0.5],[0,0.25]];outlineConnect=0;gradientColor=none;html=1;whiteSpace=wrap;fontSize=12;fontStyle=0;shape=mxgraph.aws4.group;grIcon=mxgraph.aws4.group_security_group;grStroke=0;strokeColor=#147EBA;fillColor=#E6F2F8;verticalAlign=top;align=left;spacingLeft=30;fontColor=#147EBA;dashed=0;" parent="vf7dCfk-Jjins05NdSQa-4" vertex="1">
          <mxGeometry x="260" y="440" width="190" height="130" as="geometry" />
        </mxCell>
        <mxCell id="vf7dCfk-Jjins05NdSQa-38" value="Private subnet" style="points=[[0,0],[0.25,0],[0.5,0],[0.75,0],[1,0],[1,0.25],[1,0.5],[1,0.75],[1,1],[0.75,1],[0.5,1],[0.25,1],[0,1],[0,0.75],[0,0.5],[0,0.25]];outlineConnect=0;gradientColor=none;html=1;whiteSpace=wrap;fontSize=12;fontStyle=0;shape=mxgraph.aws4.group;grIcon=mxgraph.aws4.group_security_group;grStroke=0;strokeColor=#147EBA;fillColor=#E6F2F8;verticalAlign=top;align=left;spacingLeft=30;fontColor=#147EBA;dashed=0;" parent="vf7dCfk-Jjins05NdSQa-4" vertex="1">
          <mxGeometry x="490" y="440" width="190" height="130" as="geometry" />
        </mxCell>
        <mxCell id="vf7dCfk-Jjins05NdSQa-39" value="Data subnet" style="points=[[0,0],[0.25,0],[0.5,0],[0.75,0],[1,0],[1,0.25],[1,0.5],[1,0.75],[1,1],[0.75,1],[0.5,1],[0.25,1],[0,1],[0,0.75],[0,0.5],[0,0.25]];outlineConnect=0;gradientColor=none;html=1;whiteSpace=wrap;fontSize=12;fontStyle=0;shape=mxgraph.aws4.group;grIcon=mxgraph.aws4.group_security_group;grStroke=0;strokeColor=#147EBA;fillColor=#E6F2F8;verticalAlign=top;align=left;spacingLeft=30;fontColor=#147EBA;dashed=0;" parent="vf7dCfk-Jjins05NdSQa-4" vertex="1">
          <mxGeometry x="30" y="580" width="190" height="130" as="geometry" />
        </mxCell>
        <mxCell id="vf7dCfk-Jjins05NdSQa-40" value="Data subnet" style="points=[[0,0],[0.25,0],[0.5,0],[0.75,0],[1,0],[1,0.25],[1,0.5],[1,0.75],[1,1],[0.75,1],[0.5,1],[0.25,1],[0,1],[0,0.75],[0,0.5],[0,0.25]];outlineConnect=0;gradientColor=none;html=1;whiteSpace=wrap;fontSize=12;fontStyle=0;shape=mxgraph.aws4.group;grIcon=mxgraph.aws4.group_security_group;grStroke=0;strokeColor=#147EBA;fillColor=#E6F2F8;verticalAlign=top;align=left;spacingLeft=30;fontColor=#147EBA;dashed=0;" parent="vf7dCfk-Jjins05NdSQa-4" vertex="1">
          <mxGeometry x="260" y="580" width="190" height="130" as="geometry" />
        </mxCell>
        <mxCell id="vf7dCfk-Jjins05NdSQa-41" value="Data subnet" style="points=[[0,0],[0.25,0],[0.5,0],[0.75,0],[1,0],[1,0.25],[1,0.5],[1,0.75],[1,1],[0.75,1],[0.5,1],[0.25,1],[0,1],[0,0.75],[0,0.5],[0,0.25]];outlineConnect=0;gradientColor=none;html=1;whiteSpace=wrap;fontSize=12;fontStyle=0;shape=mxgraph.aws4.group;grIcon=mxgraph.aws4.group_security_group;grStroke=0;strokeColor=#147EBA;fillColor=#E6F2F8;verticalAlign=top;align=left;spacingLeft=30;fontColor=#147EBA;dashed=0;" parent="vf7dCfk-Jjins05NdSQa-4" vertex="1">
          <mxGeometry x="490" y="580" width="190" height="130" as="geometry" />
        </mxCell>
        <mxCell id="vf7dCfk-Jjins05NdSQa-42" value="Internet Gateway" style="outlineConnect=0;fontColor=#232F3E;gradientColor=none;fillColor=#5A30B5;strokeColor=none;dashed=0;verticalLabelPosition=bottom;verticalAlign=top;align=center;html=1;fontSize=12;fontStyle=0;aspect=fixed;pointerEvents=1;shape=mxgraph.aws4.internet_gateway;" parent="vf7dCfk-Jjins05NdSQa-4" vertex="1">
          <mxGeometry x="320" y="180" width="50" height="50" as="geometry" />
        </mxCell>
        <mxCell id="vf7dCfk-Jjins05NdSQa-43" value="NAT Gateway" style="outlineConnect=0;fontColor=#232F3E;gradientColor=none;fillColor=#5A30B5;strokeColor=none;dashed=0;verticalLabelPosition=bottom;verticalAlign=top;align=center;html=1;fontSize=12;fontStyle=0;aspect=fixed;pointerEvents=1;shape=mxgraph.aws4.nat_gateway;" parent="vf7dCfk-Jjins05NdSQa-4" vertex="1">
          <mxGeometry x="100" y="330" width="50" height="50" as="geometry" />
        </mxCell>
        <mxCell id="vf7dCfk-Jjins05NdSQa-44" value="NAT Gateway" style="outlineConnect=0;fontColor=#232F3E;gradientColor=none;fillColor=#5A30B5;strokeColor=none;dashed=0;verticalLabelPosition=bottom;verticalAlign=top;align=center;html=1;fontSize=12;fontStyle=0;aspect=fixed;pointerEvents=1;shape=mxgraph.aws4.nat_gateway;" parent="vf7dCfk-Jjins05NdSQa-4" vertex="1">
          <mxGeometry x="330" y="330" width="50" height="50" as="geometry" />
        </mxCell>
        <mxCell id="vf7dCfk-Jjins05NdSQa-45" value="NAT Gateway" style="outlineConnect=0;fontColor=#232F3E;gradientColor=none;fillColor=#5A30B5;strokeColor=none;dashed=0;verticalLabelPosition=bottom;verticalAlign=top;align=center;html=1;fontSize=12;fontStyle=0;aspect=fixed;pointerEvents=1;shape=mxgraph.aws4.nat_gateway;" parent="vf7dCfk-Jjins05NdSQa-4" vertex="1">
          <mxGeometry x="560" y="330" width="50" height="50" as="geometry" />
        </mxCell>
        <mxCell id="vf7dCfk-Jjins05NdSQa-92" value="Availability Zone" style="fillColor=none;strokeColor=#147EBA;dashed=1;verticalAlign=top;fontStyle=0;fontColor=#147EBA;" parent="vf7dCfk-Jjins05NdSQa-4" vertex="1">
          <mxGeometry x="910" y="270" width="210" height="450" as="geometry" />
        </mxCell>
        <mxCell id="vf7dCfk-Jjins05NdSQa-93" value="Availability Zone" style="fillColor=none;strokeColor=#147EBA;dashed=1;verticalAlign=top;fontStyle=0;fontColor=#147EBA;" parent="vf7dCfk-Jjins05NdSQa-4" vertex="1">
          <mxGeometry x="1140" y="270" width="210" height="450" as="geometry" />
        </mxCell>
        <mxCell id="vf7dCfk-Jjins05NdSQa-94" value="Availability Zone" style="fillColor=none;strokeColor=#147EBA;dashed=1;verticalAlign=top;fontStyle=0;fontColor=#147EBA;" parent="vf7dCfk-Jjins05NdSQa-4" vertex="1">
          <mxGeometry x="1370" y="270" width="210" height="450" as="geometry" />
        </mxCell>
        <mxCell id="vf7dCfk-Jjins05NdSQa-95" value="Public subnet" style="points=[[0,0],[0.25,0],[0.5,0],[0.75,0],[1,0],[1,0.25],[1,0.5],[1,0.75],[1,1],[0.75,1],[0.5,1],[0.25,1],[0,1],[0,0.75],[0,0.5],[0,0.25]];outlineConnect=0;gradientColor=none;html=1;whiteSpace=wrap;fontSize=12;fontStyle=0;shape=mxgraph.aws4.group;grIcon=mxgraph.aws4.group_security_group;grStroke=0;verticalAlign=top;align=left;spacingLeft=30;dashed=0;fillColor=#E1D5E7;strokeColor=#9673A6;" parent="vf7dCfk-Jjins05NdSQa-4" vertex="1">
          <mxGeometry x="920" y="300" width="190" height="130" as="geometry" />
        </mxCell>
        <mxCell id="vf7dCfk-Jjins05NdSQa-96" value="Public subnet" style="points=[[0,0],[0.25,0],[0.5,0],[0.75,0],[1,0],[1,0.25],[1,0.5],[1,0.75],[1,1],[0.75,1],[0.5,1],[0.25,1],[0,1],[0,0.75],[0,0.5],[0,0.25]];outlineConnect=0;gradientColor=none;html=1;whiteSpace=wrap;fontSize=12;fontStyle=0;shape=mxgraph.aws4.group;grIcon=mxgraph.aws4.group_security_group;grStroke=0;verticalAlign=top;align=left;spacingLeft=30;dashed=0;fillColor=#E1D5E7;strokeColor=#9673A6;" parent="vf7dCfk-Jjins05NdSQa-4" vertex="1">
          <mxGeometry x="1150" y="300" width="190" height="130" as="geometry" />
        </mxCell>
        <mxCell id="vf7dCfk-Jjins05NdSQa-97" value="Public subnet" style="points=[[0,0],[0.25,0],[0.5,0],[0.75,0],[1,0],[1,0.25],[1,0.5],[1,0.75],[1,1],[0.75,1],[0.5,1],[0.25,1],[0,1],[0,0.75],[0,0.5],[0,0.25]];outlineConnect=0;gradientColor=none;html=1;whiteSpace=wrap;fontSize=12;fontStyle=0;shape=mxgraph.aws4.group;grIcon=mxgraph.aws4.group_security_group;grStroke=0;verticalAlign=top;align=left;spacingLeft=30;dashed=0;fillColor=#E1D5E7;strokeColor=#9673A6;" parent="vf7dCfk-Jjins05NdSQa-4" vertex="1">
          <mxGeometry x="1380" y="300" width="190" height="130" as="geometry" />
        </mxCell>
        <mxCell id="vf7dCfk-Jjins05NdSQa-98" value="Private subnet" style="points=[[0,0],[0.25,0],[0.5,0],[0.75,0],[1,0],[1,0.25],[1,0.5],[1,0.75],[1,1],[0.75,1],[0.5,1],[0.25,1],[0,1],[0,0.75],[0,0.5],[0,0.25]];outlineConnect=0;gradientColor=none;html=1;whiteSpace=wrap;fontSize=12;fontStyle=0;shape=mxgraph.aws4.group;grIcon=mxgraph.aws4.group_security_group;grStroke=0;verticalAlign=top;align=left;spacingLeft=30;dashed=0;fillColor=#E1D5E7;strokeColor=#9673A6;" parent="vf7dCfk-Jjins05NdSQa-4" vertex="1">
          <mxGeometry x="920" y="440" width="190" height="130" as="geometry" />
        </mxCell>
        <mxCell id="vf7dCfk-Jjins05NdSQa-99" value="Private subnet" style="points=[[0,0],[0.25,0],[0.5,0],[0.75,0],[1,0],[1,0.25],[1,0.5],[1,0.75],[1,1],[0.75,1],[0.5,1],[0.25,1],[0,1],[0,0.75],[0,0.5],[0,0.25]];outlineConnect=0;gradientColor=none;html=1;whiteSpace=wrap;fontSize=12;fontStyle=0;shape=mxgraph.aws4.group;grIcon=mxgraph.aws4.group_security_group;grStroke=0;verticalAlign=top;align=left;spacingLeft=30;dashed=0;fillColor=#E1D5E7;strokeColor=#9673A6;" parent="vf7dCfk-Jjins05NdSQa-4" vertex="1">
          <mxGeometry x="1150" y="440" width="190" height="130" as="geometry" />
        </mxCell>
        <mxCell id="vf7dCfk-Jjins05NdSQa-100" value="Private subnet" style="points=[[0,0],[0.25,0],[0.5,0],[0.75,0],[1,0],[1,0.25],[1,0.5],[1,0.75],[1,1],[0.75,1],[0.5,1],[0.25,1],[0,1],[0,0.75],[0,0.5],[0,0.25]];outlineConnect=0;gradientColor=none;html=1;whiteSpace=wrap;fontSize=12;fontStyle=0;shape=mxgraph.aws4.group;grIcon=mxgraph.aws4.group_security_group;grStroke=0;verticalAlign=top;align=left;spacingLeft=30;dashed=0;fillColor=#E1D5E7;strokeColor=#9673A6;" parent="vf7dCfk-Jjins05NdSQa-4" vertex="1">
          <mxGeometry x="1380" y="440" width="190" height="130" as="geometry" />
        </mxCell>
        <mxCell id="vf7dCfk-Jjins05NdSQa-101" value="Data subnet" style="points=[[0,0],[0.25,0],[0.5,0],[0.75,0],[1,0],[1,0.25],[1,0.5],[1,0.75],[1,1],[0.75,1],[0.5,1],[0.25,1],[0,1],[0,0.75],[0,0.5],[0,0.25]];outlineConnect=0;gradientColor=none;html=1;whiteSpace=wrap;fontSize=12;fontStyle=0;shape=mxgraph.aws4.group;grIcon=mxgraph.aws4.group_security_group;grStroke=0;verticalAlign=top;align=left;spacingLeft=30;dashed=0;fillColor=#E1D5E7;strokeColor=#9673A6;" parent="vf7dCfk-Jjins05NdSQa-4" vertex="1">
          <mxGeometry x="920" y="580" width="190" height="130" as="geometry" />
        </mxCell>
        <mxCell id="vf7dCfk-Jjins05NdSQa-102" value="Data subnet" style="points=[[0,0],[0.25,0],[0.5,0],[0.75,0],[1,0],[1,0.25],[1,0.5],[1,0.75],[1,1],[0.75,1],[0.5,1],[0.25,1],[0,1],[0,0.75],[0,0.5],[0,0.25]];outlineConnect=0;gradientColor=none;html=1;whiteSpace=wrap;fontSize=12;fontStyle=0;shape=mxgraph.aws4.group;grIcon=mxgraph.aws4.group_security_group;grStroke=0;verticalAlign=top;align=left;spacingLeft=30;dashed=0;fillColor=#E1D5E7;strokeColor=#9673A6;" parent="vf7dCfk-Jjins05NdSQa-4" vertex="1">
          <mxGeometry x="1150" y="580" width="190" height="130" as="geometry" />
        </mxCell>
        <mxCell id="vf7dCfk-Jjins05NdSQa-103" value="Data subnet" style="points=[[0,0],[0.25,0],[0.5,0],[0.75,0],[1,0],[1,0.25],[1,0.5],[1,0.75],[1,1],[0.75,1],[0.5,1],[0.25,1],[0,1],[0,0.75],[0,0.5],[0,0.25]];outlineConnect=0;gradientColor=none;html=1;whiteSpace=wrap;fontSize=12;fontStyle=0;shape=mxgraph.aws4.group;grIcon=mxgraph.aws4.group_security_group;grStroke=0;verticalAlign=top;align=left;spacingLeft=30;dashed=0;fillColor=#E1D5E7;strokeColor=#9673A6;" parent="vf7dCfk-Jjins05NdSQa-4" vertex="1">
          <mxGeometry x="1380" y="580" width="190" height="130" as="geometry" />
        </mxCell>
        <mxCell id="vf7dCfk-Jjins05NdSQa-117" value="" style="rounded=0;orthogonalLoop=1;jettySize=auto;html=1;endArrow=none;endFill=0;fontSize=10;fontColor=#9933FF;strokeColor=#66B2FF;labelBackgroundColor=none;strokeWidth=4;" parent="vf7dCfk-Jjins05NdSQa-4" edge="1">
          <mxGeometry x="0.1293" y="-35" relative="1" as="geometry">
            <mxPoint x="710" y="480" as="targetPoint" />
            <mxPoint as="offset" />
            <mxPoint x="890" y="480" as="sourcePoint" />
          </mxGeometry>
        </mxCell>
        <mxCell id="vf7dCfk-Jjins05NdSQa-122" value="Subnet Shares" style="edgeLabel;html=1;align=center;verticalAlign=middle;resizable=0;points=[];fontColor=#000000;" parent="vf7dCfk-Jjins05NdSQa-117" vertex="1" connectable="0">
          <mxGeometry x="0.0397" relative="1" as="geometry">
            <mxPoint y="-10" as="offset" />
          </mxGeometry>
        </mxCell>
        <mxCell id="vf7dCfk-Jjins05NdSQa-118" value="" style="rounded=0;orthogonalLoop=1;jettySize=auto;html=1;endArrow=none;endFill=0;fontSize=10;fontColor=#9933FF;strokeColor=#66B2FF;labelBackgroundColor=none;strokeWidth=4;" parent="vf7dCfk-Jjins05NdSQa-4" edge="1">
          <mxGeometry x="0.1293" y="-35" relative="1" as="geometry">
            <mxPoint x="710" y="737" as="targetPoint" />
            <mxPoint as="offset" />
            <mxPoint x="690" y="262" as="sourcePoint" />
            <Array as="points">
              <mxPoint x="710" y="262" />
              <mxPoint x="710" y="737" />
              <mxPoint x="690" y="737" />
            </Array>
          </mxGeometry>
        </mxCell>
        <mxCell id="vf7dCfk-Jjins05NdSQa-120" value="" style="rounded=0;orthogonalLoop=1;jettySize=auto;html=1;endArrow=none;endFill=0;fontSize=10;fontColor=#9933FF;strokeColor=#66B2FF;labelBackgroundColor=none;strokeWidth=4;" parent="vf7dCfk-Jjins05NdSQa-4" edge="1">
          <mxGeometry x="0.1293" y="-35" relative="1" as="geometry">
            <mxPoint x="890.0000000000002" y="736" as="targetPoint" />
            <mxPoint as="offset" />
            <mxPoint x="910" y="261.5" as="sourcePoint" />
            <Array as="points">
              <mxPoint x="890" y="261" />
              <mxPoint x="890" y="736" />
              <mxPoint x="910" y="735.5" />
            </Array>
          </mxGeometry>
        </mxCell>
        <mxCell id="vf7dCfk-Jjins05NdSQa-125" value="" style="group" parent="vf7dCfk-Jjins05NdSQa-4" vertex="1" connectable="0">
          <mxGeometry x="1120" y="-50" width="220" height="140" as="geometry" />
        </mxCell>
        <mxCell id="vf7dCfk-Jjins05NdSQa-105" value="" style="rounded=0;whiteSpace=wrap;html=1;labelBackgroundColor=none;fontSize=15;" parent="vf7dCfk-Jjins05NdSQa-125" vertex="1">
          <mxGeometry width="220" height="140" as="geometry" />
        </mxCell>
        <mxCell id="vf7dCfk-Jjins05NdSQa-107" value="&lt;b style=&quot;font-size: 15px;&quot;&gt;Key&lt;/b&gt;" style="text;html=1;strokeColor=none;fillColor=none;align=center;verticalAlign=middle;whiteSpace=wrap;rounded=0;labelBackgroundColor=none;fontSize=15;" parent="vf7dCfk-Jjins05NdSQa-125" vertex="1">
          <mxGeometry x="20" y="10" width="190" height="20" as="geometry" />
        </mxCell>
        <mxCell id="vf7dCfk-Jjins05NdSQa-109" value="Subnet Share" style="text;html=1;strokeColor=none;fillColor=none;align=center;verticalAlign=middle;whiteSpace=wrap;rounded=0;labelBackgroundColor=none;" parent="vf7dCfk-Jjins05NdSQa-125" vertex="1">
          <mxGeometry x="10" y="40.000000000000014" width="130" height="30" as="geometry" />
        </mxCell>
        <mxCell id="vf7dCfk-Jjins05NdSQa-111" value="" style="rounded=0;orthogonalLoop=1;jettySize=auto;html=1;endArrow=none;endFill=0;fontSize=10;fontColor=#9933FF;entryX=1;entryY=0.5;entryDx=0;entryDy=0;strokeColor=#66B2FF;labelBackgroundColor=none;strokeWidth=4;" parent="vf7dCfk-Jjins05NdSQa-125" edge="1">
          <mxGeometry y="-89.36000000000001" as="geometry">
            <mxPoint x="150" y="54.500000000000014" as="targetPoint" />
            <mxPoint as="offset" />
            <mxPoint x="200" y="54.500000000000014" as="sourcePoint" />
          </mxGeometry>
        </mxCell>
        <mxCell id="vf7dCfk-Jjins05NdSQa-114" value="Shared Subnet (from a source account)" style="text;html=1;strokeColor=none;fillColor=none;align=center;verticalAlign=middle;whiteSpace=wrap;rounded=0;labelBackgroundColor=none;" parent="vf7dCfk-Jjins05NdSQa-125" vertex="1">
          <mxGeometry x="10" y="80.64" width="130" height="30" as="geometry" />
        </mxCell>
        <mxCell id="vf7dCfk-Jjins05NdSQa-115" value="" style="points=[[0,0],[0.25,0],[0.5,0],[0.75,0],[1,0],[1,0.25],[1,0.5],[1,0.75],[1,1],[0.75,1],[0.5,1],[0.25,1],[0,1],[0,0.75],[0,0.5],[0,0.25]];outlineConnect=0;html=1;whiteSpace=wrap;fontSize=12;fontStyle=0;shape=mxgraph.aws4.group;grIcon=mxgraph.aws4.group_security_group;grStroke=0;verticalAlign=top;align=left;spacingLeft=30;dashed=0;opacity=60;fillColor=#e1d5e7;strokeColor=#9673a6;" parent="vf7dCfk-Jjins05NdSQa-125" vertex="1">
          <mxGeometry x="140" y="75.32000000000001" width="70" height="40.64" as="geometry" />
        </mxCell>
        <mxCell id="vf7dCfk-Jjins05NdSQa-46" value="Non-Prod VPC" style="" parent="0" />
        <mxCell id="vf7dCfk-Jjins05NdSQa-47" value="&lt;font color=&quot;#000000&quot;&gt;Development VPC (10.1.0.0/16)&lt;/font&gt;" style="points=[[0,0],[0.25,0],[0.5,0],[0.75,0],[1,0],[1,0.25],[1,0.5],[1,0.75],[1,1],[0.75,1],[0.5,1],[0.25,1],[0,1],[0,0.75],[0,0.5],[0,0.25]];outlineConnect=0;gradientColor=none;html=1;whiteSpace=wrap;fontSize=12;fontStyle=0;shape=mxgraph.aws4.group;grIcon=mxgraph.aws4.group_vpc;strokeColor=#248814;fillColor=none;verticalAlign=top;align=left;spacingLeft=30;fontColor=#AAB7B8;dashed=0;" parent="vf7dCfk-Jjins05NdSQa-46" vertex="1">
          <mxGeometry x="-10" y="780" width="710" height="560" as="geometry" />
        </mxCell>
        <mxCell id="vf7dCfk-Jjins05NdSQa-48" value="Availability Zone" style="fillColor=none;strokeColor=#147EBA;dashed=1;verticalAlign=top;fontStyle=0;fontColor=#147EBA;" parent="vf7dCfk-Jjins05NdSQa-46" vertex="1">
          <mxGeometry x="20" y="880" width="210" height="450" as="geometry" />
        </mxCell>
        <mxCell id="vf7dCfk-Jjins05NdSQa-49" value="Availability Zone" style="fillColor=none;strokeColor=#147EBA;dashed=1;verticalAlign=top;fontStyle=0;fontColor=#147EBA;" parent="vf7dCfk-Jjins05NdSQa-46" vertex="1">
          <mxGeometry x="250" y="880" width="210" height="450" as="geometry" />
        </mxCell>
        <mxCell id="vf7dCfk-Jjins05NdSQa-50" value="Availability Zone" style="fillColor=none;strokeColor=#147EBA;dashed=1;verticalAlign=top;fontStyle=0;fontColor=#147EBA;" parent="vf7dCfk-Jjins05NdSQa-46" vertex="1">
          <mxGeometry x="480" y="880" width="210" height="450" as="geometry" />
        </mxCell>
        <mxCell id="vf7dCfk-Jjins05NdSQa-51" value="Public subnet" style="points=[[0,0],[0.25,0],[0.5,0],[0.75,0],[1,0],[1,0.25],[1,0.5],[1,0.75],[1,1],[0.75,1],[0.5,1],[0.25,1],[0,1],[0,0.75],[0,0.5],[0,0.25]];outlineConnect=0;gradientColor=none;html=1;whiteSpace=wrap;fontSize=12;fontStyle=0;shape=mxgraph.aws4.group;grIcon=mxgraph.aws4.group_security_group;grStroke=0;strokeColor=#248814;fillColor=#E9F3E6;verticalAlign=top;align=left;spacingLeft=30;fontColor=#248814;dashed=0;" parent="vf7dCfk-Jjins05NdSQa-46" vertex="1">
          <mxGeometry x="30" y="910" width="190" height="130" as="geometry" />
        </mxCell>
        <mxCell id="vf7dCfk-Jjins05NdSQa-52" value="Public subnet" style="points=[[0,0],[0.25,0],[0.5,0],[0.75,0],[1,0],[1,0.25],[1,0.5],[1,0.75],[1,1],[0.75,1],[0.5,1],[0.25,1],[0,1],[0,0.75],[0,0.5],[0,0.25]];outlineConnect=0;gradientColor=none;html=1;whiteSpace=wrap;fontSize=12;fontStyle=0;shape=mxgraph.aws4.group;grIcon=mxgraph.aws4.group_security_group;grStroke=0;strokeColor=#248814;fillColor=#E9F3E6;verticalAlign=top;align=left;spacingLeft=30;fontColor=#248814;dashed=0;" parent="vf7dCfk-Jjins05NdSQa-46" vertex="1">
          <mxGeometry x="260" y="910" width="190" height="130" as="geometry" />
        </mxCell>
        <mxCell id="vf7dCfk-Jjins05NdSQa-53" value="Public subnet" style="points=[[0,0],[0.25,0],[0.5,0],[0.75,0],[1,0],[1,0.25],[1,0.5],[1,0.75],[1,1],[0.75,1],[0.5,1],[0.25,1],[0,1],[0,0.75],[0,0.5],[0,0.25]];outlineConnect=0;gradientColor=none;html=1;whiteSpace=wrap;fontSize=12;fontStyle=0;shape=mxgraph.aws4.group;grIcon=mxgraph.aws4.group_security_group;grStroke=0;strokeColor=#248814;fillColor=#E9F3E6;verticalAlign=top;align=left;spacingLeft=30;fontColor=#248814;dashed=0;" parent="vf7dCfk-Jjins05NdSQa-46" vertex="1">
          <mxGeometry x="490" y="910" width="190" height="130" as="geometry" />
        </mxCell>
        <mxCell id="vf7dCfk-Jjins05NdSQa-54" value="Private subnet" style="points=[[0,0],[0.25,0],[0.5,0],[0.75,0],[1,0],[1,0.25],[1,0.5],[1,0.75],[1,1],[0.75,1],[0.5,1],[0.25,1],[0,1],[0,0.75],[0,0.5],[0,0.25]];outlineConnect=0;gradientColor=none;html=1;whiteSpace=wrap;fontSize=12;fontStyle=0;shape=mxgraph.aws4.group;grIcon=mxgraph.aws4.group_security_group;grStroke=0;strokeColor=#147EBA;fillColor=#E6F2F8;verticalAlign=top;align=left;spacingLeft=30;fontColor=#147EBA;dashed=0;" parent="vf7dCfk-Jjins05NdSQa-46" vertex="1">
          <mxGeometry x="30" y="1050" width="190" height="130" as="geometry" />
        </mxCell>
        <mxCell id="vf7dCfk-Jjins05NdSQa-55" value="Private subnet" style="points=[[0,0],[0.25,0],[0.5,0],[0.75,0],[1,0],[1,0.25],[1,0.5],[1,0.75],[1,1],[0.75,1],[0.5,1],[0.25,1],[0,1],[0,0.75],[0,0.5],[0,0.25]];outlineConnect=0;gradientColor=none;html=1;whiteSpace=wrap;fontSize=12;fontStyle=0;shape=mxgraph.aws4.group;grIcon=mxgraph.aws4.group_security_group;grStroke=0;strokeColor=#147EBA;fillColor=#E6F2F8;verticalAlign=top;align=left;spacingLeft=30;fontColor=#147EBA;dashed=0;" parent="vf7dCfk-Jjins05NdSQa-46" vertex="1">
          <mxGeometry x="260" y="1050" width="190" height="130" as="geometry" />
        </mxCell>
        <mxCell id="vf7dCfk-Jjins05NdSQa-56" value="Private subnet" style="points=[[0,0],[0.25,0],[0.5,0],[0.75,0],[1,0],[1,0.25],[1,0.5],[1,0.75],[1,1],[0.75,1],[0.5,1],[0.25,1],[0,1],[0,0.75],[0,0.5],[0,0.25]];outlineConnect=0;gradientColor=none;html=1;whiteSpace=wrap;fontSize=12;fontStyle=0;shape=mxgraph.aws4.group;grIcon=mxgraph.aws4.group_security_group;grStroke=0;strokeColor=#147EBA;fillColor=#E6F2F8;verticalAlign=top;align=left;spacingLeft=30;fontColor=#147EBA;dashed=0;" parent="vf7dCfk-Jjins05NdSQa-46" vertex="1">
          <mxGeometry x="490" y="1050" width="190" height="130" as="geometry" />
        </mxCell>
        <mxCell id="vf7dCfk-Jjins05NdSQa-57" value="Data subnet" style="points=[[0,0],[0.25,0],[0.5,0],[0.75,0],[1,0],[1,0.25],[1,0.5],[1,0.75],[1,1],[0.75,1],[0.5,1],[0.25,1],[0,1],[0,0.75],[0,0.5],[0,0.25]];outlineConnect=0;gradientColor=none;html=1;whiteSpace=wrap;fontSize=12;fontStyle=0;shape=mxgraph.aws4.group;grIcon=mxgraph.aws4.group_security_group;grStroke=0;strokeColor=#147EBA;fillColor=#E6F2F8;verticalAlign=top;align=left;spacingLeft=30;fontColor=#147EBA;dashed=0;" parent="vf7dCfk-Jjins05NdSQa-46" vertex="1">
          <mxGeometry x="30" y="1190" width="190" height="130" as="geometry" />
        </mxCell>
        <mxCell id="vf7dCfk-Jjins05NdSQa-58" value="Data subnet" style="points=[[0,0],[0.25,0],[0.5,0],[0.75,0],[1,0],[1,0.25],[1,0.5],[1,0.75],[1,1],[0.75,1],[0.5,1],[0.25,1],[0,1],[0,0.75],[0,0.5],[0,0.25]];outlineConnect=0;gradientColor=none;html=1;whiteSpace=wrap;fontSize=12;fontStyle=0;shape=mxgraph.aws4.group;grIcon=mxgraph.aws4.group_security_group;grStroke=0;strokeColor=#147EBA;fillColor=#E6F2F8;verticalAlign=top;align=left;spacingLeft=30;fontColor=#147EBA;dashed=0;" parent="vf7dCfk-Jjins05NdSQa-46" vertex="1">
          <mxGeometry x="260" y="1190" width="190" height="130" as="geometry" />
        </mxCell>
        <mxCell id="vf7dCfk-Jjins05NdSQa-59" value="Data subnet" style="points=[[0,0],[0.25,0],[0.5,0],[0.75,0],[1,0],[1,0.25],[1,0.5],[1,0.75],[1,1],[0.75,1],[0.5,1],[0.25,1],[0,1],[0,0.75],[0,0.5],[0,0.25]];outlineConnect=0;gradientColor=none;html=1;whiteSpace=wrap;fontSize=12;fontStyle=0;shape=mxgraph.aws4.group;grIcon=mxgraph.aws4.group_security_group;grStroke=0;strokeColor=#147EBA;fillColor=#E6F2F8;verticalAlign=top;align=left;spacingLeft=30;fontColor=#147EBA;dashed=0;" parent="vf7dCfk-Jjins05NdSQa-46" vertex="1">
          <mxGeometry x="490" y="1190" width="190" height="130" as="geometry" />
        </mxCell>
        <mxCell id="vf7dCfk-Jjins05NdSQa-60" value="Internet Gateway" style="outlineConnect=0;fontColor=#232F3E;gradientColor=none;fillColor=#5A30B5;strokeColor=none;dashed=0;verticalLabelPosition=bottom;verticalAlign=top;align=center;html=1;fontSize=12;fontStyle=0;aspect=fixed;pointerEvents=1;shape=mxgraph.aws4.internet_gateway;" parent="vf7dCfk-Jjins05NdSQa-46" vertex="1">
          <mxGeometry x="320" y="790" width="50" height="50" as="geometry" />
        </mxCell>
        <mxCell id="vf7dCfk-Jjins05NdSQa-61" value="NAT Gateway" style="outlineConnect=0;fontColor=#232F3E;gradientColor=none;fillColor=#5A30B5;strokeColor=none;dashed=0;verticalLabelPosition=bottom;verticalAlign=top;align=center;html=1;fontSize=12;fontStyle=0;aspect=fixed;pointerEvents=1;shape=mxgraph.aws4.nat_gateway;" parent="vf7dCfk-Jjins05NdSQa-46" vertex="1">
          <mxGeometry x="100" y="940" width="50" height="50" as="geometry" />
        </mxCell>
        <mxCell id="vf7dCfk-Jjins05NdSQa-126" value="Development Account" style="points=[[0,0],[0.25,0],[0.5,0],[0.75,0],[1,0],[1,0.25],[1,0.5],[1,0.75],[1,1],[0.75,1],[0.5,1],[0.25,1],[0,1],[0,0.75],[0,0.5],[0,0.25]];outlineConnect=0;gradientColor=none;html=1;whiteSpace=wrap;fontSize=12;fontStyle=0;shape=mxgraph.aws4.group;grIcon=mxgraph.aws4.group_aws_cloud_alt;strokeColor=#232F3E;fillColor=none;verticalAlign=top;align=left;spacingLeft=30;fontColor=#232F3E;dashed=0;" parent="vf7dCfk-Jjins05NdSQa-46" vertex="1">
          <mxGeometry x="897" y="832" width="690" height="520" as="geometry" />
        </mxCell>
        <mxCell id="vf7dCfk-Jjins05NdSQa-127" value="Availability Zone" style="fillColor=none;strokeColor=#147EBA;dashed=1;verticalAlign=top;fontStyle=0;fontColor=#147EBA;" parent="vf7dCfk-Jjins05NdSQa-46" vertex="1">
          <mxGeometry x="907" y="882" width="210" height="450" as="geometry" />
        </mxCell>
        <mxCell id="vf7dCfk-Jjins05NdSQa-128" value="Availability Zone" style="fillColor=none;strokeColor=#147EBA;dashed=1;verticalAlign=top;fontStyle=0;fontColor=#147EBA;" parent="vf7dCfk-Jjins05NdSQa-46" vertex="1">
          <mxGeometry x="1137" y="882" width="210" height="450" as="geometry" />
        </mxCell>
        <mxCell id="vf7dCfk-Jjins05NdSQa-129" value="Availability Zone" style="fillColor=none;strokeColor=#147EBA;dashed=1;verticalAlign=top;fontStyle=0;fontColor=#147EBA;" parent="vf7dCfk-Jjins05NdSQa-46" vertex="1">
          <mxGeometry x="1367" y="882" width="210" height="450" as="geometry" />
        </mxCell>
        <mxCell id="vf7dCfk-Jjins05NdSQa-130" value="Public subnet" style="points=[[0,0],[0.25,0],[0.5,0],[0.75,0],[1,0],[1,0.25],[1,0.5],[1,0.75],[1,1],[0.75,1],[0.5,1],[0.25,1],[0,1],[0,0.75],[0,0.5],[0,0.25]];outlineConnect=0;gradientColor=none;html=1;whiteSpace=wrap;fontSize=12;fontStyle=0;shape=mxgraph.aws4.group;grIcon=mxgraph.aws4.group_security_group;grStroke=0;verticalAlign=top;align=left;spacingLeft=30;dashed=0;fillColor=#E1D5E7;strokeColor=#9673A6;" parent="vf7dCfk-Jjins05NdSQa-46" vertex="1">
          <mxGeometry x="917" y="912" width="190" height="130" as="geometry" />
        </mxCell>
        <mxCell id="vf7dCfk-Jjins05NdSQa-131" value="Public subnet" style="points=[[0,0],[0.25,0],[0.5,0],[0.75,0],[1,0],[1,0.25],[1,0.5],[1,0.75],[1,1],[0.75,1],[0.5,1],[0.25,1],[0,1],[0,0.75],[0,0.5],[0,0.25]];outlineConnect=0;gradientColor=none;html=1;whiteSpace=wrap;fontSize=12;fontStyle=0;shape=mxgraph.aws4.group;grIcon=mxgraph.aws4.group_security_group;grStroke=0;verticalAlign=top;align=left;spacingLeft=30;dashed=0;fillColor=#E1D5E7;strokeColor=#9673A6;" parent="vf7dCfk-Jjins05NdSQa-46" vertex="1">
          <mxGeometry x="1147" y="912" width="190" height="130" as="geometry" />
        </mxCell>
        <mxCell id="vf7dCfk-Jjins05NdSQa-132" value="Public subnet" style="points=[[0,0],[0.25,0],[0.5,0],[0.75,0],[1,0],[1,0.25],[1,0.5],[1,0.75],[1,1],[0.75,1],[0.5,1],[0.25,1],[0,1],[0,0.75],[0,0.5],[0,0.25]];outlineConnect=0;gradientColor=none;html=1;whiteSpace=wrap;fontSize=12;fontStyle=0;shape=mxgraph.aws4.group;grIcon=mxgraph.aws4.group_security_group;grStroke=0;verticalAlign=top;align=left;spacingLeft=30;dashed=0;fillColor=#E1D5E7;strokeColor=#9673A6;" parent="vf7dCfk-Jjins05NdSQa-46" vertex="1">
          <mxGeometry x="1377" y="912" width="190" height="130" as="geometry" />
        </mxCell>
        <mxCell id="vf7dCfk-Jjins05NdSQa-133" value="Private subnet" style="points=[[0,0],[0.25,0],[0.5,0],[0.75,0],[1,0],[1,0.25],[1,0.5],[1,0.75],[1,1],[0.75,1],[0.5,1],[0.25,1],[0,1],[0,0.75],[0,0.5],[0,0.25]];outlineConnect=0;gradientColor=none;html=1;whiteSpace=wrap;fontSize=12;fontStyle=0;shape=mxgraph.aws4.group;grIcon=mxgraph.aws4.group_security_group;grStroke=0;verticalAlign=top;align=left;spacingLeft=30;dashed=0;fillColor=#E1D5E7;strokeColor=#9673A6;" parent="vf7dCfk-Jjins05NdSQa-46" vertex="1">
          <mxGeometry x="917" y="1052" width="190" height="130" as="geometry" />
        </mxCell>
        <mxCell id="vf7dCfk-Jjins05NdSQa-134" value="Private subnet" style="points=[[0,0],[0.25,0],[0.5,0],[0.75,0],[1,0],[1,0.25],[1,0.5],[1,0.75],[1,1],[0.75,1],[0.5,1],[0.25,1],[0,1],[0,0.75],[0,0.5],[0,0.25]];outlineConnect=0;gradientColor=none;html=1;whiteSpace=wrap;fontSize=12;fontStyle=0;shape=mxgraph.aws4.group;grIcon=mxgraph.aws4.group_security_group;grStroke=0;verticalAlign=top;align=left;spacingLeft=30;dashed=0;fillColor=#E1D5E7;strokeColor=#9673A6;" parent="vf7dCfk-Jjins05NdSQa-46" vertex="1">
          <mxGeometry x="1147" y="1052" width="190" height="130" as="geometry" />
        </mxCell>
        <mxCell id="vf7dCfk-Jjins05NdSQa-135" value="Private subnet" style="points=[[0,0],[0.25,0],[0.5,0],[0.75,0],[1,0],[1,0.25],[1,0.5],[1,0.75],[1,1],[0.75,1],[0.5,1],[0.25,1],[0,1],[0,0.75],[0,0.5],[0,0.25]];outlineConnect=0;gradientColor=none;html=1;whiteSpace=wrap;fontSize=12;fontStyle=0;shape=mxgraph.aws4.group;grIcon=mxgraph.aws4.group_security_group;grStroke=0;verticalAlign=top;align=left;spacingLeft=30;dashed=0;fillColor=#E1D5E7;strokeColor=#9673A6;" parent="vf7dCfk-Jjins05NdSQa-46" vertex="1">
          <mxGeometry x="1377" y="1052" width="190" height="130" as="geometry" />
        </mxCell>
        <mxCell id="vf7dCfk-Jjins05NdSQa-136" value="Data subnet" style="points=[[0,0],[0.25,0],[0.5,0],[0.75,0],[1,0],[1,0.25],[1,0.5],[1,0.75],[1,1],[0.75,1],[0.5,1],[0.25,1],[0,1],[0,0.75],[0,0.5],[0,0.25]];outlineConnect=0;gradientColor=none;html=1;whiteSpace=wrap;fontSize=12;fontStyle=0;shape=mxgraph.aws4.group;grIcon=mxgraph.aws4.group_security_group;grStroke=0;verticalAlign=top;align=left;spacingLeft=30;dashed=0;fillColor=#E1D5E7;strokeColor=#9673A6;" parent="vf7dCfk-Jjins05NdSQa-46" vertex="1">
          <mxGeometry x="917" y="1192" width="190" height="130" as="geometry" />
        </mxCell>
        <mxCell id="vf7dCfk-Jjins05NdSQa-137" value="Data subnet" style="points=[[0,0],[0.25,0],[0.5,0],[0.75,0],[1,0],[1,0.25],[1,0.5],[1,0.75],[1,1],[0.75,1],[0.5,1],[0.25,1],[0,1],[0,0.75],[0,0.5],[0,0.25]];outlineConnect=0;gradientColor=none;html=1;whiteSpace=wrap;fontSize=12;fontStyle=0;shape=mxgraph.aws4.group;grIcon=mxgraph.aws4.group_security_group;grStroke=0;verticalAlign=top;align=left;spacingLeft=30;dashed=0;fillColor=#E1D5E7;strokeColor=#9673A6;" parent="vf7dCfk-Jjins05NdSQa-46" vertex="1">
          <mxGeometry x="1147" y="1192" width="190" height="130" as="geometry" />
        </mxCell>
        <mxCell id="vf7dCfk-Jjins05NdSQa-138" value="Data subnet" style="points=[[0,0],[0.25,0],[0.5,0],[0.75,0],[1,0],[1,0.25],[1,0.5],[1,0.75],[1,1],[0.75,1],[0.5,1],[0.25,1],[0,1],[0,0.75],[0,0.5],[0,0.25]];outlineConnect=0;gradientColor=none;html=1;whiteSpace=wrap;fontSize=12;fontStyle=0;shape=mxgraph.aws4.group;grIcon=mxgraph.aws4.group_security_group;grStroke=0;verticalAlign=top;align=left;spacingLeft=30;dashed=0;fillColor=#E1D5E7;strokeColor=#9673A6;" parent="vf7dCfk-Jjins05NdSQa-46" vertex="1">
          <mxGeometry x="1377" y="1192" width="190" height="130" as="geometry" />
        </mxCell>
        <mxCell id="vf7dCfk-Jjins05NdSQa-139" value="" style="rounded=0;orthogonalLoop=1;jettySize=auto;html=1;endArrow=none;endFill=0;fontSize=10;fontColor=#9933FF;strokeColor=#66B2FF;labelBackgroundColor=none;strokeWidth=4;" parent="vf7dCfk-Jjins05NdSQa-46" edge="1">
          <mxGeometry x="0.1293" y="-35" relative="1" as="geometry">
            <mxPoint x="707" y="1092" as="targetPoint" />
            <mxPoint as="offset" />
            <mxPoint x="887" y="1092" as="sourcePoint" />
          </mxGeometry>
        </mxCell>
        <mxCell id="vf7dCfk-Jjins05NdSQa-140" value="Subnet Shares" style="edgeLabel;html=1;align=center;verticalAlign=middle;resizable=0;points=[];fontColor=#000000;" parent="vf7dCfk-Jjins05NdSQa-139" vertex="1" connectable="0">
          <mxGeometry x="0.0397" relative="1" as="geometry">
            <mxPoint y="-10" as="offset" />
          </mxGeometry>
        </mxCell>
        <mxCell id="vf7dCfk-Jjins05NdSQa-141" value="" style="rounded=0;orthogonalLoop=1;jettySize=auto;html=1;endArrow=none;endFill=0;fontSize=10;fontColor=#9933FF;strokeColor=#66B2FF;labelBackgroundColor=none;strokeWidth=4;" parent="vf7dCfk-Jjins05NdSQa-46" edge="1">
          <mxGeometry x="0.1293" y="-35" relative="1" as="geometry">
            <mxPoint x="707" y="1349" as="targetPoint" />
            <mxPoint as="offset" />
            <mxPoint x="687" y="874" as="sourcePoint" />
            <Array as="points">
              <mxPoint x="707" y="874" />
              <mxPoint x="707" y="1349" />
              <mxPoint x="687" y="1349" />
            </Array>
          </mxGeometry>
        </mxCell>
        <mxCell id="vf7dCfk-Jjins05NdSQa-142" value="" style="rounded=0;orthogonalLoop=1;jettySize=auto;html=1;endArrow=none;endFill=0;fontSize=10;fontColor=#9933FF;strokeColor=#66B2FF;labelBackgroundColor=none;strokeWidth=4;" parent="vf7dCfk-Jjins05NdSQa-46" edge="1">
          <mxGeometry x="0.1293" y="-35" relative="1" as="geometry">
            <mxPoint x="887" y="1348" as="targetPoint" />
            <mxPoint as="offset" />
            <mxPoint x="907" y="873.5" as="sourcePoint" />
            <Array as="points">
              <mxPoint x="887" y="873" />
              <mxPoint x="887" y="1348" />
              <mxPoint x="907" y="1347.5" />
            </Array>
          </mxGeometry>
        </mxCell>
        <mxCell id="vf7dCfk-Jjins05NdSQa-71" value="Route 53" style="" parent="0" />
        <mxCell id="vf7dCfk-Jjins05NdSQa-72" value="" style="group" parent="vf7dCfk-Jjins05NdSQa-71" vertex="1" connectable="0">
          <mxGeometry x="260" y="-60" width="290" height="170" as="geometry" />
        </mxCell>
        <mxCell id="vf7dCfk-Jjins05NdSQa-73" value="        Route 53 (DNS)" style="fillColor=none;dashed=1;verticalAlign=top;fontStyle=0;strokeColor=#945DF2;fontColor=#945DF2;align=left;" parent="vf7dCfk-Jjins05NdSQa-72" vertex="1">
          <mxGeometry width="150" height="170" as="geometry" />
        </mxCell>
        <mxCell id="vf7dCfk-Jjins05NdSQa-74" value="" style="points=[[0,0,0],[0.25,0,0],[0.5,0,0],[0.75,0,0],[1,0,0],[0,1,0],[0.25,1,0],[0.5,1,0],[0.75,1,0],[1,1,0],[0,0.25,0],[0,0.5,0],[0,0.75,0],[1,0.25,0],[1,0.5,0],[1,0.75,0]];outlineConnect=0;fontColor=#232F3E;gradientColor=#945DF2;gradientDirection=north;fillColor=#5A30B5;strokeColor=#ffffff;dashed=0;verticalLabelPosition=bottom;verticalAlign=top;align=center;html=1;fontSize=12;fontStyle=0;aspect=fixed;shape=mxgraph.aws4.resourceIcon;resIcon=mxgraph.aws4.route_53;" parent="vf7dCfk-Jjins05NdSQa-72" vertex="1">
          <mxGeometry width="18.91891891891892" height="18.91891891891892" as="geometry" />
        </mxCell>
        <mxCell id="vf7dCfk-Jjins05NdSQa-78" value="Public Hosted Zone&lt;br&gt;Domain Name Service&lt;div&gt;&lt;br&gt;&lt;/div&gt;" style="outlineConnect=0;fontColor=#232F3E;gradientColor=none;fillColor=#5A30B5;strokeColor=none;dashed=0;verticalLabelPosition=bottom;verticalAlign=top;align=center;html=1;fontSize=12;fontStyle=0;aspect=fixed;pointerEvents=1;shape=mxgraph.aws4.hosted_zone;" parent="vf7dCfk-Jjins05NdSQa-72" vertex="1">
          <mxGeometry x="40" y="40" width="60.78" height="60" as="geometry" />
        </mxCell>
      </root>
    </mxGraphModel>
  </diagram>
</mxfile>
